<svg role="img" aria-hidden="true" fill="currentColor" viewBox="0 0 182 182"><path d="M91,4C43,4,4,43,4,91s39,87,87,87s87-39,87-87S139,4,91,4z M150.9,120.8c-1.8,2.4-5.3,2.9-7.7,1.1L107.3,95l9.1-7l13.5,10.2 l-12.2-22.8l-0.3,0.6l-0.2,0.4c-0.2,0.4-0.4,0.8-0.7,1.2l-0.7,1.3c-0.1,0.2-0.2,0.3-0.3,0.5c-4,6.9-8.4,13.4-13.4,19.7l-0.7,0.8 l-0.4,0.4c-0.5,0.6-1,1.2-1.5,1.8c-0.1,0.1-0.2,0.3-0.4,0.4c-0.5,0.6-1.1,1.2-1.6,1.8l-0.4,0.4c-0.6,0.6-1.1,1.2-1.7,1.8l-0.4,0.4 c-0.6,0.6-1.2,1.2-1.8,1.8l-0.4,0.3c-0.6,0.6-1.2,1.2-1.8,1.7l-0.1,0.1c-8.4,7.6-18.1,13.1-28.5,13.1c-13.4,0-33.3-10.5-33.3-33 c0-23.3,21-33,32.3-33C81,58,91,68,99,76l2,2l-8.8,6.8c-0.3-0.4-0.6-0.7-1-1C83.7,76.2,76.5,69,61.5,69c-5.7,0-21.3,5.2-21.3,22 c0,16.5,15.3,22,22.3,22c10,0,20.1-8,28.7-18.1c0.5-0.6,1.1-1.3,1.6-1.9c0.1-0.1,0.1-0.2,0.2-0.3c3.6-4.5,6.9-9.1,9.9-14 c3.6-5.6,6.8-11.5,9.6-17.5c0.5-1.1,1.3-2,2.4-2.6c2.7-1.4,6-0.4,7.4,2.3l29,54h0C152.4,116.8,152.2,119.1,150.9,120.8z"></path></svg>